<?xml version="1.0" standalone="no"?> <!DOCTYPE svg PUBLIC "-//W3C//DTD SVG 1.0//EN" "http://www.w3.org/TR/2001/REC-SVG-20010904/DTD/svg10.dtd" > <svg xmlns="http://www.w3.org/2000/svg" width="100%" height="100%">
<defs >
<font id="SFNSText" horiz-adv-x="1222" ><font-face
    font-family="SFNSText"
    units-per-em="2048"
    panose-1="0 0 4 0 0 0 0 0 0 0"
    ascent="1950"
    descent="-494"
    alphabetic="0" />
<missing-glyph horiz-adv-x="2048" d="M100 -494V-186H1948V-494H100ZM100 -67V241H1948V-67H100ZM100 361V668H1948V361H100ZM100 788V1095H1948V788H100ZM100 1215V1523H1948V1215H100ZM100 1642V1950H1948V1642H100Z" />
<glyph unicode=" " glyph-name="space" horiz-adv-x="554" />
<glyph unicode="!" glyph-name="exclam" horiz-adv-x="617" d="M233 1444H383L372 457H245L233 1444ZM192 101Q192 152 225 185T309 219T392 186T425 101Q425 51 392 18T309 -16T226 17T192 101Z" />
<glyph unicode="&quot;" glyph-name="quotedbl" horiz-adv-x="802" d="M296 935H173V1443H296V935ZM629 935H506V1443H629V935Z" />
<glyph unicode="#" glyph-name="numbersign" horiz-adv-x="1316" d="M1211 918H973L896 537H1130L1107 426H874L786 0H674L762 426H423L335 0H224L311 426H82L105 537H335L411 918H186L208 1028H434L520 1445H631L546 1028H885L971 1445H1083L996 1028H1234L1211
918ZM521 919L445 535H786L863 919H521Z" />
<glyph unicode="$" glyph-name="dollar" horiz-adv-x="1321" d="M714 -150H610V-9Q407 4 280 114T150 391H280Q288 277 378 200T610 110V689L555 704Q366 752 276 843T185 1075Q185 1236 301 1341T610 1461V1599H714V1462Q900 1448 1019 1342T1143 1080H1013Q1009
1184 925 1258T714 1343V799L773 784Q983 732 1077 640T1171 395Q1171 223 1048 115T714 -8V-150ZM1039 385Q1039 497 963 563T714 668V108Q862 115 950 190T1039 385ZM316 1082Q316 981 387 919T610 822V1343Q483 1337 400 1263T316 1082Z" />
<glyph unicode="%" glyph-name="percent" horiz-adv-x="1610" d="M1212 79Q1290 79 1338 145T1386 320Q1386 429 1339 493T1212 558T1084 493T1036 320Q1036 211 1084 145T1212 79ZM1212 -21Q1080 -21 997 74T913 320Q913 469 996 564T1212 659Q1343 659 1426
565T1509 320Q1509 169 1426 74T1212 -21ZM530 784T399 784T185 879T101 1125Q101 1274 184 1369T399 1464T613 1370T697 1125Q697 974 614 879ZM347 0H204L755 746L1269 1443H1410L853 687L347 0ZM399 885Q477 885 525 951T573 1125Q573 1234 526 1299T399 1364Q320
1364 272 1299T224 1125Q224 1016 272 951T399 885Z" />
<glyph unicode="&amp;" glyph-name="ampersand" horiz-adv-x="1472" d="M1233 0L1075 168Q982 77 856 26T596 -25Q387 -25 255 87T122 377Q122 620 403 769Q408 772 441 789T480 809Q370 922 327 1000T283 1158Q283 1292 385 1382T641 1472T894 1383T995 1158Q995
1049 919 960T667 781L1067 354Q1159 517 1159 757V803H1287V757Q1287 458 1157 262L1405 0H1233ZM482 686Q371 628 315 551T258 385Q258 257 355 175T607 92Q714 92 819 137T992 255L556 724Q553 723 537 715T504 697T482 686ZM592 859Q739 932 802 1001T866 1153Q866
1244 803 1303T641 1362Q545 1362 480 1302T414 1151Q414 1087 452 1024T592 859Z" />
<glyph unicode="&apos;" glyph-name="quotesingle" horiz-adv-x="469" d="M296 935H173V1443H296V935Z" />
<glyph unicode="(" glyph-name="parenleft" horiz-adv-x="711" d="M577 -268H458Q328 -105 258 120T188 599Q188 851 255 1055T465 1442H579Q464 1301 394 1070T323 599Q323 142 577 -268Z" />
<glyph unicode=")" glyph-name="parenright" horiz-adv-x="711" d="M133 -268Q387 142 387 599Q387 839 317 1070T132 1442H247Q389 1260 455 1056T522 599Q522 347 452 122T253 -268H133Z" />
<glyph unicode="*" glyph-name="asterisk" horiz-adv-x="1052" d="M609 1076L870 939L817 848L568 1005L579 711H473L484 1005L235 848L182 939L443 1076L182 1214L235 1306L484 1146L473 1443H579L568 1146L817 1306L870 1214L609 1076Z" />
<glyph unicode="+" glyph-name="plus" horiz-adv-x="1321" d="M718 523V67H603V523H159V637H603V1085H718V637H1161V523H718Z" />
<glyph unicode="," glyph-name="comma" horiz-adv-x="593" d="M265 -339H150L236 192H397L265 -339Z" />
<glyph unicode="-" glyph-name="hyphen" horiz-adv-x="975" d="M815 520H159V644H815V520Z" />
<glyph unicode="." glyph-name="period" horiz-adv-x="593" d="M297 -10Q251 -10 219 22T186 100Q186 146 218 178T297 210Q342 210 374 178T407 100Q407 55 375 23T297 -10Z" />
<glyph unicode="/" glyph-name="slash" horiz-adv-x="695" d="M184 -327H67L510 1443H628L184 -327Z" />
<glyph unicode="0" glyph-name="zero" horiz-adv-x="1282" d="M642 -30Q401 -30 267 168T132 722Q132 1074 267 1273T642 1473Q880 1473 1014 1273T1149 720Q1149 366 1015 168T642 -30ZM466 90T642 90T915 256T1012 722Q1012 1020 915 1186T642 1352T369 1186T270
722Q270 422 368 256Z" />
<glyph unicode="1" glyph-name="one" horiz-adv-x="913" d="M503 0V1293H490Q470 1281 302 1164T114 1033V1178Q120 1182 210 1245T388 1368T503 1445H639V0H503Z" />
<glyph unicode="2" glyph-name="two" d="M152 1045Q153 1168 211 1266T373 1418T605 1473Q795 1473 924 1358T1053 1072Q1053 960 989 851T747 552L357 136V124H1089V0H160V96L664 641Q815 803 865 888T916 1067Q916 1188 826 1270T602 1353Q463 1353 375 1268T285
1045V1044H152V1045Z" />
<glyph unicode="3" glyph-name="three" horiz-adv-x="1260" d="M443 686V804H612Q752 804 839 881T927 1083Q927 1201 840 1277T619 1353T398 1280T300 1083H167Q179 1260 303 1366T624 1473Q808 1473 937 1364T1066 1099Q1066 968 995 879T798 761V748Q953 731
1042 635T1132 390Q1132 212 987 91T630 -30Q421 -30 283 82T137 369H269Q278 247 379 169T629 90Q786 90 888 176T991 393Q991 529 891 607T618 686H443Z" />
<glyph unicode="4" glyph-name="four" horiz-adv-x="1312" d="M844 0V326H119V451Q342 828 781 1445H977V449H1193V326H977V0H844ZM262 457V448H844V1314H835Q643 1052 517 862T262 457Z" />
<glyph unicode="5" glyph-name="five" horiz-adv-x="1256" d="M629 -30Q432 -30 298 83T152 373H286Q297 252 395 172T630 91Q788 91 890 193T992 454T891 715T633 817Q527 817 439 769T304 637H174L252 1443H1039V1320H360L312 794H325Q377 862 463 899T655 936Q863
936 996 802T1129 458Q1129 244 989 107T629 -30Z" />
<glyph unicode="6" glyph-name="six" horiz-adv-x="1288" d="M665 -29Q519 -29 407 41T226 246Q130 415 130 691Q130 1059 274 1266T675 1473Q854 1473 979 1373T1136 1104H996Q969 1217 882 1283T673 1350Q479 1350 372 1176T263 680H275Q322 802 433 874T686
946Q891 946 1026 810T1162 466Q1162 251 1022 111T665 -29ZM663 92Q817 92 920 198T1024 461Q1024 621 923 724T664 827Q509 827 404 725T299 471Q299 310 403 201T663 92Z" />
<glyph unicode="7" glyph-name="seven" horiz-adv-x="1161" d="M240 0L907 1309V1320H107V1443H1047V1315L386 0H240Z" />
<glyph unicode="8" glyph-name="eight" horiz-adv-x="1294" d="M647 -30Q421 -30 279 87T136 389Q136 529 222 631T451 758V770Q333 798 263 885T192 1091Q192 1258 320 1365T647 1473Q847 1473 974 1366T1102 1091Q1102 973 1032 886T844 770V758Q985 732 1072
631T1159 389Q1159 203 1017 87T647 -30ZM481 88T647 88T917 174T1021 398Q1021 532 918 615T647 699Q481 699 378 616T274 398Q274 261 377 175ZM647 817Q790 817 878 889T967 1080Q967 1202 878 1278T647 1355T416 1279T327 1080Q327 963 416 890T647 817Z" />
<glyph unicode="9" glyph-name="nine" horiz-adv-x="1288" d="M613 -29Q432 -29 308 71T152 339H292Q319 227 405 160T615 93Q805 93 911 259T1025 730Q1026 736 1023 748T1019 763H1016H1013Q966 643 855 571T602 498Q395 498 261 633T126 976Q126 1192 266 1332T623
1473Q769 1473 881 1402T1062 1196Q1158 1028 1158 752Q1158 384 1015 178T613 -29ZM624 617Q779 617 884 719T989 972Q989 1133 885 1242T625 1352Q471 1352 368 1245T264 980T365 720T624 617Z" />
<glyph unicode=":" glyph-name="colon" horiz-adv-x="593" d="M297 -10Q251 -10 219 22T186 100Q186 146 218 178T297 210Q342 210 374 178T407 100Q407 55 375 23T297 -10ZM297 763Q251 763 219 795T186 874T218 952T297 984Q342 984 374 952T407 874T375 796T297 763Z" />
<glyph unicode=";" glyph-name="semicolon" horiz-adv-x="593" d="M248 -339H133L218 192H380L248 -339ZM297 763Q251 763 219 795T186 874T218 952T297 984Q342 984 374 952T407 874T375 796T297 763Z" />
<glyph unicode="&lt;" glyph-name="less" horiz-adv-x="1321" d="M1093 134V-9L228 522V631L1093 1162V1019L360 582V570L1093 134Z" />
<glyph unicode="=" glyph-name="equal" horiz-adv-x="1321" d="M1158 331H163V446H1158V331ZM1158 714H163V829H1158V714Z" />
<glyph unicode="&gt;" glyph-name="greater" horiz-adv-x="1321" d="M228 134L960 570V582L228 1019V1162L1093 631V522L228 -9V134Z" />
<glyph unicode="?" glyph-name="question" horiz-adv-x="1020" d="M82 1079Q91 1244 202 1350T501 1456Q680 1456 795 1354T911 1098Q911 990 859 908T700 757Q602 694 567 642T532 505V430H399V524Q398 623 444 693T597 831Q692 893 731 951T770 1092Q770 1199
693 1268T496 1337T299 1267T212 1079H82ZM478 -16Q427 -16 394 17T361 101Q361 152 394 185T478 219Q528 219 561 186T594 101Q594 51 561 18T478 -16Z" />
<glyph unicode="@" glyph-name="at" horiz-adv-x="1871" d="M929 906Q819 906 753 821T686 594Q686 452 752 368T928 284Q1039 284 1105 370T1171 599Q1171 740 1106 823T929 906ZM961 1434Q1194 1434 1376 1340T1660 1077T1761 690Q1761 448 1667 308T1410 168Q1317
168 1255 219T1184 352H1171Q1137 267 1070 221T912 175Q757 175 660 292T563 597Q563 781 660 897T912 1013Q996 1013 1064 969T1160 852H1173V993H1289V418Q1289 346 1325 308T1430 270Q1533 270 1592 383T1651 692Q1651 880 1563 1026T1316 1254T952 1335Q801
1335 670 1280T446 1128T300 895T247 600Q247 269 446 68T972 -133Q1195 -133 1304 -89V-188Q1172 -232 971 -232Q593 -232 366 -4T138 604Q138 846 242 1035T533 1329T961 1434Z" />
<glyph unicode="A" glyph-name="A" horiz-adv-x="1363" d="M1145 0L985 442H379L219 0H74L614 1443H750L1289 0H1145ZM675 1264L420 560H944L688 1264H675Z" />
<glyph unicode="B" glyph-name="B" horiz-adv-x="1319" d="M715 0H185V1443H704Q903 1443 1018 1348T1133 1087Q1133 966 1059 878T869 769V756Q1022 739 1114 643T1207 399Q1207 210 1078 105T715 0ZM322 1322V807H645Q813 807 904 873T995 1065Q995 1186 911
1254T678 1322H322ZM322 121H696Q877 121 972 194T1067 406Q1067 543 967 615T679 688H322V121Z" />
<glyph unicode="C" glyph-name="C" horiz-adv-x="1455" d="M763 -30Q469 -30 298 172T127 721T298 1270T762 1473Q909 1473 1033 1413T1238 1245T1338 1002H1199Q1168 1155 1047 1250T762 1346Q535 1346 401 1177T267 721Q267 434 401 266T763 97Q930 97 1049
183T1199 411H1338Q1307 212 1150 91T763 -30Z" />
<glyph unicode="D" glyph-name="D" horiz-adv-x="1471" d="M185 1443H660Q987 1443 1166 1252T1345 722Q1345 382 1167 191T660 0H185V1443ZM322 1319V124H652Q915 124 1060 282T1205 721T1060 1160T652 1319H322Z" />
<glyph unicode="E" glyph-name="E" horiz-adv-x="1197" d="M1057 124V0H185V1443H1057V1319H322V800H1020V678H322V124H1057Z" />
<glyph unicode="F" glyph-name="F" horiz-adv-x="1155" d="M322 0H185V1443H1041V1319H322V777H983V655H322V0Z" />
<glyph unicode="G" glyph-name="G" horiz-adv-x="1506" d="M1375 559Q1375 291 1211 131T773 -30Q480 -30 304 175T127 722Q127 1061 303 1267T770 1473Q1001 1473 1161 1350T1361 1021H1222Q1177 1176 1059 1261T770 1346Q541 1346 404 1176T267 722Q267 437
404 267T773 97Q985 97 1112 220T1239 548V598H799V719H1375V559Z" />
<glyph unicode="H" glyph-name="H" horiz-adv-x="1488" d="M1303 0H1166V677H322V0H185V1443H322V801H1166V1443H1303V0Z" />
<glyph unicode="I" glyph-name="I" horiz-adv-x="507" d="M322 0H185V1443H322V0Z" />
<glyph unicode="J" glyph-name="J" horiz-adv-x="1088" d="M92 330H228Q233 227 306 162T492 97Q623 97 694 175T766 398V1443H903V393Q903 196 793 83T493 -30Q318 -30 206 70T92 330Z" />
<glyph unicode="K" glyph-name="K" horiz-adv-x="1311" d="M322 0H185V1443H322V697H334L1017 1443H1188L610 820L1247 0H1070L515 725L322 515V0Z" />
<glyph unicode="L" glyph-name="L" horiz-adv-x="1139" d="M1044 124V0H185V1443H322V124H1044Z" />
<glyph unicode="M" glyph-name="M" horiz-adv-x="1761" d="M314 0H185V1443H342L875 187H887L1418 1443H1576V0H1448V1177H1438L940 7H821L323 1177H314V0Z" />
<glyph unicode="N" glyph-name="N" horiz-adv-x="1494" d="M320 0H185V1443H320L1161 245H1174V1443H1309V0H1177L333 1199H320V0Z" />
<glyph unicode="O" glyph-name="O" horiz-adv-x="1561" d="M781 1473Q1084 1473 1258 1271T1433 722T1259 173T781 -30Q477 -30 302 172T127 722Q127 1068 303 1270T781 1473ZM781 1346Q545 1346 406 1178T267 722Q267 436 405 267T781 97Q1018 97 1155 266T1293
722Q1293 1009 1156 1177T781 1346Z" />
<glyph unicode="P" glyph-name="P" horiz-adv-x="1272" d="M185 1443H698Q905 1443 1032 1318T1160 991Q1160 792 1031 668T696 544H322V0H185V1443ZM322 1321V666H665Q832 666 926 752T1021 991Q1021 1147 928 1234T665 1321H322Z" />
<glyph unicode="Q" glyph-name="Q" horiz-adv-x="1561" d="M1346 -169H1192L1052 22Q930 -30 781 -30Q477 -30 302 171T127 721Q127 1069 303 1271T781 1473Q1082 1473 1257 1271T1433 721Q1433 502 1363 337T1163 84L1346 -169ZM782 97Q886 97 974 132L780 395H935L1083
197Q1184 270 1238 405T1293 721Q1293 1008 1155 1177T781 1346Q545 1346 406 1177T267 721Q267 433 406 265T782 97Z" />
<glyph unicode="R" glyph-name="R" horiz-adv-x="1309" d="M322 1321V713H691Q848 713 935 793T1023 1017Q1023 1159 933 1240T685 1321H322ZM322 591V0H185V1443H702Q913 1443 1038 1329T1163 1021Q1163 868 1081 760T854 613L1204 0H1044L712 591H691H322Z" />
<glyph unicode="S" glyph-name="S" horiz-adv-x="1284" d="M115 375H253Q267 251 379 173T657 95Q818 95 923 175T1028 376Q1028 478 951 546T706 655L541 697Q338 747 247 836T156 1073Q156 1249 293 1361T650 1473Q856 1473 995 1365T1145 1090H1007Q990 1206
893 1277T646 1348Q491 1348 394 1272T296 1077Q296 983 368 924T605 823L748 787Q971 732 1069 639T1168 391Q1168 202 1025 86T645 -30Q421 -30 275 82T115 375Z" />
<glyph unicode="T" glyph-name="T" horiz-adv-x="1280" d="M708 0H572V1319H88V1443H1192V1319H708V0Z" />
<glyph unicode="U" glyph-name="U" horiz-adv-x="1494" d="M325 1443V509Q325 326 439 213T747 100T1055 213T1169 509V1443H1306V500Q1306 263 1155 119T747 -26Q491 -26 340 118T189 500V1443H325Z" />
<glyph unicode="V" glyph-name="V" horiz-adv-x="1363" d="M750 0H614L74 1443H218L675 179H688L1145 1443H1289L750 0Z" />
<glyph unicode="W" glyph-name="W" horiz-adv-x="1956" d="M973 1205L619 0H492L95 1443H237L554 213H563L910 1443H1046L1393 213H1402L1719 1443H1861L1464 0H1337L983 1205H973Z" />
<glyph unicode="X" glyph-name="X" horiz-adv-x="1366" d="M95 0L599 724L99 1443H264L682 834H693L1115 1443H1271L763 719L1263 0H1099L683 606H672L251 0H95Z" />
<glyph unicode="Y" glyph-name="Y" horiz-adv-x="1321" d="M729 0H593V624L75 1443H232L655 763H667L1090 1443H1246L729 624V0Z" />
<glyph unicode="Z" glyph-name="Z" horiz-adv-x="1328" d="M138 0V99L1001 1307V1319H167V1443H1178V1343L318 136V124H1190V0H138Z" />
<glyph unicode="[" glyph-name="bracketleft" horiz-adv-x="733" d="M188 1444H605V1338H317V-134H618V-238H188V1444Z" />
<glyph unicode="\" glyph-name="backslash" horiz-adv-x="695" d="M512 -327L67 1443H185L628 -327H512Z" />
<glyph unicode="]" glyph-name="bracketright" horiz-adv-x="733" d="M544 1444V-238H115V-134H417V1338H128V1444H544Z" />
<glyph unicode="^" glyph-name="asciicircum" horiz-adv-x="947" d="M468 1302L232 794H106L404 1416H544L842 794H715L480 1302H468Z" />
<glyph unicode="_" glyph-name="underscore" horiz-adv-x="919" d="M927 -222H-8V-122H927V-222Z" />
<glyph unicode="`" glyph-name="grave" horiz-adv-x="999" d="M709 1267H560L291 1594H459L709 1267Z" />
<glyph unicode="a" glyph-name="a" horiz-adv-x="1125" d="M491 98Q636 98 733 185T831 401V527L512 504Q241 485 241 300Q241 208 311 153T491 98ZM469 -18Q309 -18 208 68T106 298Q106 438 206 518T494 612L831 634V738Q831 854 763 916T563 978Q452 978 377
934T282 811H149Q168 939 282 1017T567 1095Q756 1095 859 1002T963 739V0H837V185H825Q776 89 682 36T469 -18Z" />
<glyph unicode="b" glyph-name="b" horiz-adv-x="1252" d="M685 -18Q561 -18 463 44T317 215H304V0H179V1506H310V868H322Q367 973 465 1034T685 1095Q890 1095 1014 943T1138 539Q1138 288 1014 135T685 -18ZM817 977T658 977T403 858T307 539T403 221T658 101T910
219T1003 540Q1003 741 910 859Z" />
<glyph unicode="c" glyph-name="c" horiz-adv-x="1145" d="M1042 760H909Q883 856 802 916T600 977Q439 977 345 859T250 542Q250 340 345 221T600 101Q720 101 801 156T908 310H1041Q1016 162 899 72T601 -18Q378 -18 247 133T115 542Q115 795 246 945T600 1095Q780
1095 898 1001T1042 760Z" />
<glyph unicode="d" glyph-name="d" horiz-adv-x="1256" d="M571 -18Q365 -18 240 134T115 538Q115 788 240 941T571 1095Q694 1095 791 1034T934 867H946V1506H1077V0H951V215H939Q891 107 793 45T571 -18ZM599 977Q439 977 345 858T250 539Q250 338 344 220T599
101Q758 101 853 220T948 539Q948 737 853 857T599 977Z" />
<glyph unicode="e" glyph-name="e" horiz-adv-x="1174" d="M595 979Q448 979 354 879T251 612H922Q920 779 831 879T595 979ZM909 266H1042Q1002 134 884 58T597 -18Q375 -18 245 132T115 538Q115 792 245 943T596 1095Q811 1095 935 952T1059 562V504H250V498Q255
315 349 207T600 99Q714 99 794 142T909 266Z" />
<glyph unicode="f" glyph-name="f" horiz-adv-x="718" d="M241 0V966H62V1077H241V1196Q241 1493 538 1493Q583 1493 636 1483V1372Q598 1381 545 1381Q461 1381 417 1334T372 1193V1077H626V966H372V0H241Z" />
<glyph unicode="g" glyph-name="g" horiz-adv-x="1242" d="M945 550Q945 743 850 860T595 977Q435 977 343 862T250 552Q250 359 342 244T595 128Q756 128 850 243T945 550ZM606 -404Q422 -404 305 -329T167 -126H306Q324 -201 404 -245T606 -289Q762 -289 852
-213T943 -6V236H930Q882 129 788 70T569 11Q362 11 239 159T115 552T239 945T569 1095Q692 1095 792 1032T936 864H948V1077H1074V-16Q1074 -192 946 -298T606 -404Z" />
<glyph unicode="h" glyph-name="h" horiz-adv-x="1210" d="M179 0V1506H310V883H322Q366 984 457 1039T676 1095Q850 1095 950 991T1050 700V0H919V667Q919 819 848 898T641 977Q490 977 400 884T310 640V0H179Z" />
<glyph unicode="i" glyph-name="i" horiz-adv-x="480" d="M175 0V1077H306V0H175ZM280 1317T240 1317T172 1346T143 1415T171 1483T240 1512T309 1484T338 1415Q338 1374 309 1346Z" />
<glyph unicode="j" glyph-name="j" horiz-adv-x="480" d="M306 1077V-68Q306 -224 232 -295T3 -367H-21V-254H0Q94 -254 134 -212T175 -72V1077H306ZM280 1317T240 1317T172 1346T143 1415T171 1483T240 1512T309 1484T338 1415Q338 1374 309 1346Z" />
<glyph unicode="k" glyph-name="k" horiz-adv-x="1092" d="M322 573L848 1077H1012L531 615L1034 0H866L432 531L310 418V0H179V1506H310V573H322Z" />
<glyph unicode="l" glyph-name="l" horiz-adv-x="489" d="M179 0V1506H310V0H179Z" />
<glyph unicode="m" glyph-name="m" horiz-adv-x="1772" d="M169 0V1077H294V883H307Q342 982 424 1038T618 1095T808 1039T923 883H936Q978 981 1067 1038T1272 1095Q1434 1095 1523 1002T1613 737V0H1482V707Q1482 839 1419 908T1233 977Q1110 977 1033 894T956
683V0H825V721Q825 837 757 907T577 977Q460 977 380 885T300 661V0H169Z" />
<glyph unicode="n" glyph-name="n" horiz-adv-x="1192" d="M169 0V1077H294V883H307Q350 984 439 1039T655 1095Q835 1095 933 992T1032 700V0H901V667Q901 977 620 977Q477 977 389 885T300 640V0H169Z" />
<glyph unicode="o" glyph-name="o" horiz-adv-x="1208" d="M438 101T604 101T864 217T958 539T864 860T604 977T344 861T250 539T344 218ZM830 -18T604 -18T247 131T115 539T246 946T604 1095T962 946T1094 539T962 132Z" />
<glyph unicode="p" glyph-name="p" horiz-adv-x="1242" d="M675 1095Q880 1095 1004 943T1128 539T1004 135T675 -18Q550 -18 454 41T312 205H300V-357H169V1077H294V857H306Q356 968 454 1031T675 1095ZM646 101Q806 101 899 219T993 538Q993 740 900 858T647
977Q489 977 393 857T296 539T392 221T646 101Z" />
<glyph unicode="q" glyph-name="q" horiz-adv-x="1246" d="M570 1095Q692 1095 791 1031T938 857H950V1077H1077V-357H944V205H932Q882 99 788 41T570 -18Q365 -18 240 135T115 539Q115 789 240 942T570 1095ZM596 101Q756 101 852 220T948 539Q948 737 852 857T597
977T344 858T250 539Q250 338 343 220T596 101Z" />
<glyph unicode="r" glyph-name="r" horiz-adv-x="764" d="M169 0V1077H294V900H307Q334 988 417 1041T607 1095Q671 1095 708 1086V955Q663 968 591 968Q466 968 383 884T300 672V0H169Z" />
<glyph unicode="s" glyph-name="s" horiz-adv-x="1058" d="M144 792Q144 921 256 1008T533 1095Q696 1095 803 1020T928 816H799Q781 892 710 937T532 983Q425 983 351 930T276 797Q276 731 328 690T490 623L638 588Q797 550 872 482T947 298Q947 160 828 71T531
-18Q355 -18 241 59T111 270H247Q269 188 344 141T535 94Q654 94 733 149T812 288Q812 358 761 401T601 471L438 510Q286 547 215 613T144 792Z" />
<glyph unicode="t" glyph-name="t" horiz-adv-x="724" d="M237 1357H368V1077H617V966H368V298Q368 199 408 155T539 110Q584 110 617 113V1Q577 -6 525 -6Q370 -6 304 57T237 268V966H61V1077H237V1357Z" />
<glyph unicode="u" glyph-name="u" horiz-adv-x="1193" d="M1024 1077V0H899V194H887Q846 93 755 38T536 -18Q357 -18 259 86T160 377V1077H291V410Q291 259 361 181T570 102Q720 102 806 192T893 437V1077H1024Z" />
<glyph unicode="v" glyph-name="v" horiz-adv-x="1078" d="M67 1077H207L533 143H545L870 1077H1011L609 0H469L67 1077Z" />
<glyph unicode="w" glyph-name="w" horiz-adv-x="1566" d="M1499 1077L1192 0H1053L788 894H775L510 0H372L67 1077H200L439 163H451L717 1077H848L1114 163H1126L1367 1077H1499Z" />
<glyph unicode="x" glyph-name="x" horiz-adv-x="1049" d="M529 440H517L223 0H73L453 542L70 1077H228L521 647H533L824 1077H975L597 547L979 0H822L529 440Z" />
<glyph unicode="y" glyph-name="y" horiz-adv-x="1079" d="M245 -381Q218 -381 184 -377V-263Q204 -267 243 -267Q317 -267 363 -224T449 -74L471 -7L67 1077H209L535 143H547L872 1077H1012L593 -52Q521 -246 449 -313T245 -381Z" />
<glyph unicode="z" glyph-name="z" horiz-adv-x="1082" d="M131 0V100L791 954V966H132V1077H948V976L290 123V111H950V0H131Z" />
<glyph unicode="{" glyph-name="braceleft" horiz-adv-x="809" d="M260 611Q434 595 434 374V14Q434 -105 492 -160T675 -216H729V-325H673Q485 -325 397 -243T309 15V324Q309 445 270 492T132 540V698Q230 698 269 746T309 916V1184Q309 1356 396 1435T673 1515H729V1406H675Q548
1406 491 1352T434 1175V862Q434 646 260 628V611Z" />
<glyph unicode="|" glyph-name="bar" horiz-adv-x="661" d="M388 -328H273V1443H388V-328Z" />
<glyph unicode="}" glyph-name="braceright" horiz-adv-x="809" d="M550 611V628Q375 646 375 862V1175Q375 1297 319 1351T134 1406H81V1515H137Q326 1515 413 1436T501 1184V916Q501 794 540 746T677 698V540Q579 540 540 493T501 324V15Q501 -161 413 -243T137
-325H81V-216H134Q259 -216 317 -161T375 14V374Q375 595 550 611Z" />
<glyph unicode="~" glyph-name="asciitilde" horiz-adv-x="1204" d="M564 650Q503 710 466 732T391 755Q324 755 285 704T240 559H117Q117 707 191 794T394 881Q454 881 508 853T634 756Q692 699 732 676T810 652Q878 652 920 705T967 852H1089Q1090 705 1013
616T808 526Q744 526 690 554T564 650Z" />
</font>
</defs>
</svg>
