<?xml version="1.0" standalone="no"?> <!DOCTYPE svg PUBLIC "-//W3C//DTD SVG 1.0//EN" "http://www.w3.org/TR/2001/REC-SVG-20010904/DTD/svg10.dtd" > <svg xmlns="http://www.w3.org/2000/svg" width="100%" height="100%">
<defs >
<font id="SFNSText" horiz-adv-x="1241" ><font-face
    font-family="SFNSText"
    units-per-em="2048"
    panose-1="0 0 5 0 0 0 0 0 0 0"
    ascent="1950"
    descent="-494"
    alphabetic="0" />
<missing-glyph horiz-adv-x="2048" d="M100 -494V-210H1948V-494H100ZM100 -62V222H1948V-62H100ZM100 370V654H1948V370H100ZM100 802V1086H1948V802H100ZM100 1234V1518H1948V1234H100ZM100 1666V1950H1948V1666H100Z" />
<glyph unicode=" " glyph-name="space" horiz-adv-x="578" />
<glyph unicode="!" glyph-name="exclam" horiz-adv-x="637" d="M218 1444H418L401 480H235L218 1444ZM180 60T180 121T219 221T319 261T418 222T457 121Q457 60 419 21T319 -18T219 21Z" />
<glyph unicode="&quot;" glyph-name="quotedbl" horiz-adv-x="895" d="M339 904H179V1443H339V904ZM716 904H556V1443H716V904Z" />
<glyph unicode="#" glyph-name="numbersign" horiz-adv-x="1296" d="M1195 901H979L909 557H1125L1096 413H880L796 0H652L737 413H430L346 0H203L287 413H71L102 557H318L387 901H171L200 1044H416L498 1443H641L560 1044H866L948 1443H1092L1009 1044H1225L1195
901ZM528 903L458 554H767L838 903H528Z" />
<glyph unicode="$" glyph-name="dollar" horiz-adv-x="1328" d="M732 -137H598V-3Q395 12 273 120T150 395H321Q329 295 402 231T598 152V672L518 694Q357 737 271 833T185 1067Q185 1230 296 1335T598 1460V1600H732V1461Q918 1445 1032 1339T1152 1069H982Q979
1163 911 1228T732 1306V817L818 796Q1003 747 1090 653T1178 408Q1178 230 1061 123T732 -2V-137ZM1005 394Q1005 494 939 554T732 645V149Q862 156 933 220T1005 394ZM357 1077Q357 988 418 930T598 846V1306Q493 1300 425 1236T357 1077Z" />
<glyph unicode="%" glyph-name="percent" horiz-adv-x="1610" d="M1223 103Q1289 103 1329 163T1370 323Q1370 424 1331 483T1223 542Q1156 542 1116 483T1075 323T1115 163T1223 103ZM1358 -25T1223 -25T1002 72T915 323Q915 475 1001 572T1223 670T1444 573T1530
323T1444 73ZM523 773T388 773T167 870T80 1121Q80 1273 166 1370T388 1468T609 1371T695 1121T609 871ZM372 0H188L739 752L1245 1443H1427L867 677L372 0ZM388 901Q454 901 494 961T535 1121Q535 1222 496 1281T388 1340Q321 1340 281 1281T240 1121T280 961T388
901Z" />
<glyph unicode="&amp;" glyph-name="ampersand" horiz-adv-x="1457" d="M1203 0L1070 144Q977 63 856 18T603 -27Q388 -27 252 88T115 385Q115 637 401 788Q407 791 417 796T439 807T457 816Q358 920 317 997T276 1154Q276 1293 381 1385T644 1477Q804 1477 908
1386T1012 1152Q1012 1041 940 954T700 779L1061 391Q1129 527 1129 779V804H1297V778Q1297 453 1178 269L1429 0H1203ZM505 682Q295 573 295 397Q295 275 384 200T619 125Q718 125 811 161T964 260L556 706Q545 702 505 682ZM603 881Q735 948 789 1008T843 1146Q843
1230 788 1282T645 1334Q559 1334 504 1281T448 1144Q448 1084 483 1025T603 881Z" />
<glyph unicode="&apos;" glyph-name="quotesingle" horiz-adv-x="518" d="M339 904H179V1443H339V904Z" />
<glyph unicode="(" glyph-name="parenleft" horiz-adv-x="728" d="M601 -277H449Q320 -116 250 113T179 600Q179 856 245 1054T459 1442H604Q495 1314 426 1078T356 600Q356 366 414 157T601 -277Z" />
<glyph unicode=")" glyph-name="parenright" horiz-adv-x="728" d="M126 -277Q254 -53 312 156T371 600Q371 844 302 1079T124 1442H270Q418 1253 483 1055T549 600Q549 344 479 115T279 -277H126Z" />
<glyph unicode="*" glyph-name="asterisk" horiz-adv-x="1054" d="M631 1062L890 931L823 815L579 973L595 684H459L475 974L231 815L164 931L424 1062L164 1194L231 1312L475 1149L459 1443H595L579 1149L823 1312L890 1194L631 1062Z" />
<glyph unicode="+" glyph-name="plus" horiz-adv-x="1328" d="M738 506V71H590V506H155V654H590V1089H738V654H1173V506H738Z" />
<glyph unicode="," glyph-name="comma" horiz-adv-x="608" d="M285 -367H135L231 202H433L285 -367Z" />
<glyph unicode="-" glyph-name="hyphen" horiz-adv-x="966" d="M811 499H155V662H811V499Z" />
<glyph unicode="." glyph-name="period" horiz-adv-x="608" d="M304 -10Q251 -10 213 28T174 120Q174 174 212 212T304 250Q358 250 396 212T434 120Q434 67 396 29T304 -10Z" />
<glyph unicode="/" glyph-name="slash" horiz-adv-x="712" d="M210 -325H60L500 1443H652L210 -325Z" />
<glyph unicode="0" glyph-name="zero" horiz-adv-x="1290" d="M646 -34Q402 -34 268 164T134 722Q134 1079 269 1278T646 1477Q887 1477 1021 1277T1156 719Q1156 360 1023 163T646 -34ZM486 123T646 123T890 277T975 722Q975 1009 890 1164T646 1319T402 1164T315
722Q315 433 400 278Z" />
<glyph unicode="1" glyph-name="one" horiz-adv-x="955" d="M506 0V1243H490L123 977V1167L507 1443H686V0H506Z" />
<glyph unicode="2" glyph-name="two" horiz-adv-x="1237" d="M152 1037Q152 1229 282 1353T614 1477Q808 1477 939 1361T1071 1072Q1071 959 1007 850T766 551L419 178V162H1095V0H161V124L660 669Q799 820 845 899T891 1065Q891 1173 810 1246T609 1320Q482 1320
404 1242T326 1037V1036H152V1037Z" />
<glyph unicode="3" glyph-name="three" horiz-adv-x="1284" d="M456 665V819H631Q754 819 832 891T911 1075Q911 1185 835 1252T634 1320T432 1255T344 1073H169Q183 1261 309 1369T641 1477Q765 1477 869 1427T1034 1289T1094 1099Q1094 970 1027 881T841 763V747Q988
728 1072 633T1156 389Q1156 211 1009 89T648 -34Q428 -34 289 78T140 376H314Q326 261 416 192T646 123Q788 123 879 199T971 394Q971 519 882 592T639 665H456Z" />
<glyph unicode="4" glyph-name="four" horiz-adv-x="1318" d="M820 0V299H117V463Q315 815 735 1443H996V460H1201V299H996V0H820ZM301 471V459H821V1276H809Q575 936 301 471Z" />
<glyph unicode="5" glyph-name="five" horiz-adv-x="1267" d="M637 -34Q432 -34 298 81T152 384H329Q341 267 426 196T639 124Q784 124 872 215T961 454T873 694T642 787Q544 787 466 745T344 625H175L254 1443H1059V1282H395L354 819H370Q475 942 675 942Q881
942 1011 807T1141 459Q1141 239 1001 103T637 -34Z" />
<glyph unicode="6" glyph-name="six" horiz-adv-x="1305" d="M671 -33Q508 -33 387 51T198 295Q128 459 128 697Q128 1069 273 1273T683 1477Q867 1477 994 1376T1156 1100H971Q942 1201 865 1259T681 1317Q505 1317 408 1165T303 725H319Q372 830 473 888T703
947Q909 947 1043 811T1177 464Q1177 246 1035 107T671 -33ZM530 125T669 125T901 220T995 458Q995 606 905 698T671 791T436 699T343 464Q343 319 436 222Z" />
<glyph unicode="7" glyph-name="seven" horiz-adv-x="1167" d="M221 0L869 1268V1282H97V1443H1052V1276L410 0H221Z" />
<glyph unicode="8" glyph-name="eight" horiz-adv-x="1308" d="M883 -34T654 -34T280 83T134 386Q134 527 216 628T434 754V770Q324 800 259 887T193 1092Q193 1261 322 1369T654 1477T985 1369T1115 1092Q1115 973 1051 887T874 770V754Q1010 729 1092 628T1174
386Q1174 201 1029 84ZM504 120T654 120T898 197T992 399T898 600T654 678T410 601T316 399T410 198ZM526 830T654 830T860 897T938 1075Q938 1187 860 1255T654 1323T448 1255T370 1075Q370 965 448 898Z" />
<glyph unicode="9" glyph-name="nine" horiz-adv-x="1305" d="M622 -33Q438 -33 311 68T149 344H334Q363 243 440 185T624 127Q800 127 897 279T1002 719H994H990H986Q933 614 832 556T602 497Q396 497 262 633T128 980Q128 1198 270 1337T634 1477Q796 1477 918
1393T1107 1149Q1177 985 1177 747Q1177 375 1032 171T622 -33ZM491 653T634 653T869 745T962 980Q962 1125 869 1222T636 1319T404 1224T310 986Q310 838 400 746Z" />
<glyph unicode=":" glyph-name="colon" horiz-adv-x="608" d="M304 -10Q251 -10 213 28T174 120Q174 174 212 212T304 250Q358 250 396 212T434 120Q434 67 396 29T304 -10ZM304 759Q251 759 213 797T174 889Q174 943 212 981T304 1019Q358 1019 396 981T434 889Q434
836 396 798T304 759Z" />
<glyph unicode=";" glyph-name="semicolon" horiz-adv-x="608" d="M260 -367H110L206 202H408L260 -367ZM304 759Q251 759 213 797T174 889Q174 943 212 981T304 1019Q358 1019 396 981T434 889Q434 836 396 798T304 759Z" />
<glyph unicode="&lt;" glyph-name="less" horiz-adv-x="1328" d="M1104 203V17L224 526V668L1104 1177V991L396 605V589L1104 203Z" />
<glyph unicode="=" glyph-name="equal" horiz-adv-x="1328" d="M1168 312H160V461H1168V312ZM1168 700H160V849H1168V700Z" />
<glyph unicode="&gt;" glyph-name="greater" horiz-adv-x="1328" d="M224 203L932 589V605L224 991V1177L1104 668V526L224 17V203Z" />
<glyph unicode="?" glyph-name="question" horiz-adv-x="1050" d="M80 1066Q89 1237 201 1345T516 1454Q703 1454 821 1351T940 1092Q940 873 731 747Q637 691 603 641T568 511V446H393V538Q392 636 440 708T593 842Q681 896 717 950T754 1083Q754 1177 687 1237T509
1298Q396 1298 328 1236T251 1066H80ZM555 -18T494 -18T394 21T355 121T394 221T494 261T593 222T632 121Q632 60 594 21Z" />
<glyph unicode="@" glyph-name="at" horiz-adv-x="1880" d="M934 875Q834 875 778 801T721 596Q721 466 777 391T932 316Q1035 316 1096 392T1157 596T1097 799T934 875ZM969 1435Q1203 1435 1385 1342T1669 1082T1771 699Q1771 454 1669 310T1395 166Q1307 166
1246 213T1175 334H1159Q1127 258 1062 217T909 175Q753 175 657 292T561 600Q561 782 658 897T909 1013Q988 1013 1051 975T1143 872H1159V994H1310V407Q1310 354 1339 325T1423 296Q1517 296 1573 406T1630 701Q1630 880 1546 1018T1308 1232T956 1309Q763 1309
610 1218T370 964T284 595Q284 275 475 84T988 -107Q1091 -107 1183 -94T1323 -59V-185Q1181 -234 986 -234Q599 -234 371 -8T143 601Q143 784 203 939T372 1204T633 1374T969 1435Z" />
<glyph unicode="A" glyph-name="A" horiz-adv-x="1380" d="M1122 0L977 413H403L258 0H69L601 1443H779L1311 0H1122ZM682 1210L456 566H924L698 1210H682Z" />
<glyph unicode="B" glyph-name="B" horiz-adv-x="1346" d="M747 0H184V1443H736Q934 1443 1048 1346T1163 1083Q1163 971 1091 881T914 772V756Q1062 737 1149 643T1236 405Q1236 214 1107 107T747 0ZM364 1284V821H652Q981 821 981 1052Q981 1162 907 1223T698
1284H364ZM364 159H720Q883 159 967 224T1051 414Q1051 666 703 666H364V159Z" />
<glyph unicode="C" glyph-name="C" horiz-adv-x="1466" d="M765 -34Q471 -34 300 169T128 721T299 1273T764 1477Q992 1477 1154 1347T1348 1008H1165Q1129 1148 1021 1229T764 1311Q556 1311 435 1152T313 721T435 291T765 132Q916 132 1023 204T1165 402H1348Q1312
203 1154 85T765 -34Z" />
<glyph unicode="D" glyph-name="D" horiz-adv-x="1487" d="M184 1443H679Q1000 1443 1180 1253T1360 722Q1360 381 1181 191T679 0H184V1443ZM364 1281V162H667Q908 162 1042 309T1176 720Q1176 985 1042 1133T667 1281H364Z" />
<glyph unicode="E" glyph-name="E" horiz-adv-x="1220" d="M1078 162V0H184V1443H1078V1281H364V818H1041V658H364V162H1078Z" />
<glyph unicode="F" glyph-name="F" horiz-adv-x="1172" d="M364 0H184V1443H1060V1281H364V785H1003V625H364V0Z" />
<glyph unicode="G" glyph-name="G" horiz-adv-x="1529" d="M1395 558Q1395 291 1227 129T782 -34Q483 -34 306 171T128 722Q128 1064 307 1270T782 1477Q1022 1477 1184 1352T1386 1013H1203Q1156 1159 1049 1235T782 1311Q568 1311 441 1151T313 722Q313 449
439 291T783 132Q977 132 1096 245T1216 541V576H810V734H1395V558Z" />
<glyph unicode="H" glyph-name="H" horiz-adv-x="1520" d="M1336 0H1156V657H364V0H184V1443H364V819H1156V1443H1336V0Z" />
<glyph unicode="I" glyph-name="I" horiz-adv-x="548" d="M364 0H184V1443H364V0Z" />
<glyph unicode="J" glyph-name="J" horiz-adv-x="1102" d="M86 337H265Q268 246 332 189T497 132Q613 132 675 201T738 403V1443H918V402Q918 196 806 81T498 -34Q316 -34 201 69T86 337Z" />
<glyph unicode="K" glyph-name="K" horiz-adv-x="1349" d="M364 0H184V1443H364V742H380L1012 1443H1238L661 820L1291 0H1058L537 695L364 504V0Z" />
<glyph unicode="L" glyph-name="L" horiz-adv-x="1163" d="M1060 162V0H184V1443H364V162H1060Z" />
<glyph unicode="M" glyph-name="M" horiz-adv-x="1790" d="M352 0H184V1443H393L887 249H903L1397 1443H1606V0H1438V1102H1426L971 10H819L364 1102H352V0Z" />
<glyph unicode="N" glyph-name="N" horiz-adv-x="1520" d="M362 0H184V1443H359L1142 320H1158V1443H1336V0H1161L378 1119H362V0Z" />
<glyph unicode="O" glyph-name="O" horiz-adv-x="1579" d="M791 1477Q1098 1477 1274 1274T1451 722T1275 170T791 -34Q482 -34 305 170T128 722T306 1273T791 1477ZM791 1311Q571 1311 442 1152T313 722T440 292T791 132Q1012 132 1139 292T1266 722Q1266 994
1139 1152T791 1311Z" />
<glyph unicode="P" glyph-name="P" horiz-adv-x="1301" d="M184 1443H729Q934 1443 1062 1313T1191 976Q1191 774 1061 645T727 515H364V0H184V1443ZM364 1283V675H682Q836 675 921 754T1006 976Q1006 1125 923 1204T682 1283H364Z" />
<glyph unicode="Q" glyph-name="Q" horiz-adv-x="1579" d="M1378 -163H1176L1049 10Q932 -34 791 -34Q483 -34 306 168T128 721Q128 1070 306 1273T791 1477Q1095 1477 1273 1274T1451 721Q1451 506 1385 343T1195 91L1378 -163ZM792 132Q873 132 946 154L755
413H959L1090 239Q1175 307 1220 431T1266 721Q1266 993 1138 1152T791 1311Q570 1311 442 1152T313 721Q313 448 441 290T792 132Z" />
<glyph unicode="R" glyph-name="R" horiz-adv-x="1338" d="M364 1283V731H719Q858 731 933 802T1009 1007Q1009 1137 930 1210T711 1283H364ZM364 571V0H184V1443H735Q944 1443 1069 1326T1195 1013Q1195 862 1118 752T905 599L1239 0H1028L719 571H364Z" />
<glyph unicode="S" glyph-name="S" horiz-adv-x="1305" d="M115 377H297Q314 264 414 197T668 130Q814 130 909 200T1005 378Q1005 470 935 530T716 629L531 677Q335 726 246 819T157 1066Q157 1250 297 1363T667 1477Q876 1477 1017 1365T1169 1078H988Q969 1189
883 1251T661 1314Q517 1314 430 1248T342 1072Q342 987 406 934T620 843L771 803Q995 747 1092 653T1190 400Q1190 201 1044 84T651 -34Q422 -34 276 78T115 377Z" />
<glyph unicode="T" glyph-name="T" horiz-adv-x="1298" d="M739 0H559V1281H94V1443H1204V1281H739V0Z" />
<glyph unicode="U" glyph-name="U" horiz-adv-x="1524" d="M369 1443V508Q369 341 473 237T762 132T1050 236T1155 508V1443H1335V496Q1335 261 1181 114T762 -34T344 113T189 496V1443H369Z" />
<glyph unicode="V" glyph-name="V" horiz-adv-x="1380" d="M779 0H601L69 1443H258L682 233H698L1122 1443H1311L779 0Z" />
<glyph unicode="W" glyph-name="W" horiz-adv-x="1982" d="M985 1139L653 0H483L90 1443H278L565 270H577L900 1443H1082L1405 270H1417L1704 1443H1892L1499 0H1329L997 1139H985Z" />
<glyph unicode="X" glyph-name="X" horiz-adv-x="1390" d="M90 0L584 726L96 1443H313L693 869H709L1095 1443H1300L800 718L1289 0H1073L695 569H679L294 0H90Z" />
<glyph unicode="Y" glyph-name="Y" horiz-adv-x="1344" d="M762 0H582V621L70 1443H275L664 802H680L1069 1443H1274L762 621V0Z" />
<glyph unicode="Z" glyph-name="Z" horiz-adv-x="1355" d="M144 0V128L961 1265V1281H172V1443H1194V1315L381 178V162H1211V0H144Z" />
<glyph unicode="[" glyph-name="bracketleft" horiz-adv-x="757" d="M179 1444H631V1308H347V-105H643V-240H179V1444Z" />
<glyph unicode="\" glyph-name="backslash" horiz-adv-x="712" d="M502 -325L60 1443H212L652 -325H502Z" />
<glyph unicode="]" glyph-name="bracketright" horiz-adv-x="757" d="M578 1444V-240H114V-105H411V1308H127V1444H578Z" />
<glyph unicode="^" glyph-name="asciicircum" horiz-adv-x="984" d="M484 1280L264 780H101L397 1419H587L883 780H720L500 1280H484Z" />
<glyph unicode="_" glyph-name="underscore" horiz-adv-x="916" d="M926 -235H-10V-107H926V-235Z" />
<glyph unicode="`" glyph-name="grave" horiz-adv-x="1093" d="M782 1263H588L310 1601H530L782 1263Z" />
<glyph unicode="a" glyph-name="a" horiz-adv-x="1130" d="M494 132Q627 132 714 209T802 402V501L512 482Q390 474 333 431T276 306Q276 225 337 179T494 132ZM462 -19Q303 -19 201 68T98 302Q98 446 200 528T491 621L802 640V738Q802 838 740 891T558 944Q461
944 397 909T315 810H141Q158 939 274 1018T564 1097Q760 1097 867 1002T974 738V0H810V159H794Q742 73 656 27T462 -19Z" />
<glyph unicode="b" glyph-name="b" horiz-adv-x="1258" d="M698 -19Q586 -19 495 31T352 172H336V0H172V1506H344V908H360Q404 995 495 1046T698 1097Q904 1097 1027 945T1150 539Q1150 286 1027 134T698 -19ZM658 942Q511 942 426 834T340 539T425 244T658 136Q806
136 889 243T972 539T889 835T658 942Z" />
<glyph unicode="c" glyph-name="c" horiz-adv-x="1146" d="M1054 748H880Q858 833 786 887T602 942Q457 942 372 834T286 543Q286 357 372 247T602 136Q711 136 783 185T880 325H1054Q1030 172 911 77T603 -19Q376 -19 242 133T108 543Q108 795 242 946T602 1097Q791
1097 910 998T1054 748Z" />
<glyph unicode="d" glyph-name="d" horiz-adv-x="1258" d="M561 -19Q354 -19 231 133T108 539Q108 792 231 944T561 1097Q674 1097 763 1047T899 908H914V1506H1086V0H922V172H906Q855 82 764 32T561 -19ZM601 942Q454 942 370 835T286 539Q286 350 369 243T601
136Q748 136 833 244T918 539Q918 724 833 833T601 942Z" />
<glyph unicode="e" glyph-name="e" horiz-adv-x="1170" d="M592 945Q463 945 380 858T287 628H881Q878 771 799 858T592 945ZM876 279H1048Q1009 139 890 60T594 -19Q370 -19 239 131T108 538Q108 793 240 945T594 1097Q812 1097 937 952T1062 555V489H287V481Q294
321 377 227T598 133Q807 133 876 279Z" />
<glyph unicode="f" glyph-name="f" horiz-adv-x="741" d="M234 0V934H55V1078H234V1183Q234 1345 315 1420T557 1496Q603 1496 663 1486V1342Q622 1351 567 1351Q406 1351 406 1178V1078H653V934H406V0H234Z" />
<glyph unicode="g" glyph-name="g" horiz-adv-x="1248" d="M918 555Q918 732 832 837T598 942T368 838T286 555T368 272T598 168Q747 168 832 272T918 555ZM606 -414Q413 -414 294 -334T154 -119H336Q350 -186 421 -225T606 -264Q751 -264 832 -197T914 -10V202H898Q847
113 759 65T560 16Q352 16 230 163T108 555T231 948T560 1097Q673 1097 766 1046T906 907H922V1078H1086V-19Q1086 -200 956 -307T606 -414Z" />
<glyph unicode="h" glyph-name="h" horiz-adv-x="1216" d="M172 0V1506H344V908H360Q401 999 485 1048T692 1097Q864 1097 964 992T1064 698V0H892V656Q892 942 643 942Q501 942 423 860T344 638V0H172Z" />
<glyph unicode="i" glyph-name="i" horiz-adv-x="504" d="M166 0V1078H338V0H166ZM302 1297T252 1297T167 1332T132 1417T167 1501T252 1537T337 1502T372 1417T337 1333Z" />
<glyph unicode="j" glyph-name="j" horiz-adv-x="504" d="M338 1078V-53Q338 -219 258 -294T8 -370H-22V-223H4Q94 -223 130 -185T166 -56V1078H338ZM302 1297T252 1297T167 1332T132 1417T167 1501T252 1537T337 1502T372 1417T337 1333Z" />
<glyph unicode="k" glyph-name="k" horiz-adv-x="1112" d="M360 607L828 1078H1039L575 616L1070 0H851L447 505L344 409V0H172V1506H344V607H360Z" />
<glyph unicode="l" glyph-name="l" horiz-adv-x="516" d="M172 0V1506H344V0H172Z" />
<glyph unicode="m" glyph-name="m" horiz-adv-x="1782" d="M162 0V1078H326V908H342Q379 998 457 1047T643 1097Q749 1097 825 1046T941 908H957Q1001 995 1089 1046T1287 1097Q1452 1097 1541 1006T1630 745V0H1458V705Q1458 942 1231 942Q1121 942 1051 870T981
693V0H809V732Q809 828 748 885T584 942Q479 942 407 862T334 668V0H162Z" />
<glyph unicode="n" glyph-name="n" horiz-adv-x="1195" d="M162 0V1078H326V908H342Q428 1097 666 1097Q847 1097 945 994T1043 698V0H871V656Q871 801 809 871T617 942Q487 942 411 861T334 638V0H162Z" />
<glyph unicode="o" glyph-name="o" horiz-adv-x="1210" d="M452 136T605 136T841 241T924 539T841 836T605 942T369 837T286 539T369 242ZM835 -19T605 -19T242 130T108 539Q108 799 241 948T605 1097T969 948T1102 539Q1102 280 969 131Z" />
<glyph unicode="p" glyph-name="p" horiz-adv-x="1248" d="M687 1097Q893 1097 1016 945T1140 539Q1140 286 1016 134T687 -19Q572 -19 483 28T350 162H334V-360H162V1078H326V898H342Q394 991 485 1044T687 1097ZM646 136Q794 136 878 243T962 539T879 835T647
942Q501 942 415 834T329 539Q329 354 414 245T646 136Z" />
<glyph unicode="q" glyph-name="q" horiz-adv-x="1248" d="M559 1097Q669 1097 762 1043T904 898H920V1078H1086V-360H912V162H896Q790 -19 559 -19Q353 -19 231 132T108 539Q108 792 231 944T559 1097ZM598 136Q746 136 831 244T917 539Q917 724 831 833T599
942Q452 942 369 835T286 539Q286 349 368 243T598 136Z" />
<glyph unicode="r" glyph-name="r" horiz-adv-x="780" d="M162 0V1078H326V918H342Q366 997 450 1047T641 1097Q690 1097 727 1092V920Q692 930 617 930Q494 930 414 856T334 668V0H162Z" />
<glyph unicode="s" glyph-name="s" horiz-adv-x="1072" d="M137 783Q137 917 252 1007T539 1097Q708 1097 818 1019T945 808H775Q757 874 696 912T538 951Q441 951 376 906T310 790Q310 735 355 699T497 639L663 599Q817 562 890 492T964 307Q964 164 841 73T532
-19Q352 -19 237 61T108 275H285Q307 205 372 166T538 126Q647 126 717 173T787 294Q787 404 616 446L431 491Q278 528 208 597T137 783Z" />
<glyph unicode="t" glyph-name="t" horiz-adv-x="744" d="M234 1357H406V1078H646V934H406V324Q406 229 444 186T566 143Q603 143 646 147V2Q589 -8 545 -8Q378 -8 306 59T234 280V934H60V1078H234V1357Z" />
<glyph unicode="u" glyph-name="u" horiz-adv-x="1196" d="M1034 1078V0H870V169H854Q813 78 728 30T520 -19Q340 -19 246 84T152 380V1078H324V422Q324 275 382 207T568 138Q709 138 785 217T862 440V1078H1034Z" />
<glyph unicode="v" glyph-name="v" horiz-adv-x="1110" d="M68 1078H252L547 190H563L858 1078H1042L643 0H467L68 1078Z" />
<glyph unicode="w" glyph-name="w" horiz-adv-x="1586" d="M1518 1078L1216 0H1041L800 834H784L544 0H370L68 1078H242L454 216H470L711 1078H876L1117 216H1133L1345 1078H1518Z" />
<glyph unicode="x" glyph-name="x" horiz-adv-x="1076" d="M544 407H528L272 0H77L446 539L73 1078H278L534 677H550L803 1078H998L632 546L1003 0H799L544 407Z" />
<glyph unicode="y" glyph-name="y" horiz-adv-x="1112" d="M254 -390Q213 -390 177 -384V-237Q203 -242 249 -242Q324 -242 368 -202T447 -65L467 -1L68 1078H254L550 191H566L861 1078H1044L623 -66Q554 -253 476 -321T254 -390Z" />
<glyph unicode="z" glyph-name="z" horiz-adv-x="1104" d="M137 0V126L759 918V934H138V1078H964V949L345 160V144H967V0H137Z" />
<glyph unicode="{" glyph-name="braceleft" horiz-adv-x="824" d="M287 606Q466 589 466 365V31Q466 -88 520 -140T700 -193H745V-334H685Q491 -334 397 -247T302 19V308Q302 426 263 472T124 519V710Q224 710 263 757T302 923V1178Q302 1353 396 1437T685 1522H745V1381H700Q575
1381 521 1329T466 1156V860Q466 640 287 622V606Z" />
<glyph unicode="|" glyph-name="bar" horiz-adv-x="676" d="M412 -326H264V1443H412V-326Z" />
<glyph unicode="}" glyph-name="braceright" horiz-adv-x="824" d="M537 606V622Q358 640 358 860V1156Q358 1277 304 1329T124 1381H79V1522H139Q334 1522 428 1438T522 1178V923Q522 804 561 757T700 710V519Q600 519 561 473T522 308V19Q522 -160 428 -247T139
-334H79V-193H124Q249 -193 303 -141T358 31V365Q358 589 537 606Z" />
<glyph unicode="~" glyph-name="asciitilde" horiz-adv-x="1202" d="M557 636Q502 692 467 714T397 737Q267 737 256 558H96Q95 718 177 810T401 902Q465 902 523 872T647 777Q699 722 735 700T805 677Q936 677 947 856H1106Q1107 696 1026 604T802 512Q738 512
680 541T557 636Z" />
</font>
</defs>
</svg>
