<?xml version="1.0" standalone="no"?> <!DOCTYPE svg PUBLIC "-//W3C//DTD SVG 1.0//EN" "http://www.w3.org/TR/2001/REC-SVG-20010904/DTD/svg10.dtd" > <svg xmlns="http://www.w3.org/2000/svg" width="100%" height="100%">
<defs >
<font id="SFNSDisplay" horiz-adv-x="1122" ><font-face
    font-family="SFNSDisplay"
    units-per-em="2048"
    panose-1="0 0 4 0 0 0 0 0 0 0"
    ascent="1950"
    descent="-494"
    alphabetic="0" />
<missing-glyph horiz-adv-x="2048" d="M100 -494V-186H1948V-494H100ZM100 -67V241H1948V-67H100ZM100 361V668H1948V361H100ZM100 788V1095H1948V788H100ZM100 1215V1523H1948V1215H100ZM100 1642V1950H1948V1642H100Z" />
<glyph unicode=" " glyph-name="space" horiz-adv-x="454" />
<glyph unicode="!" glyph-name="exclam" horiz-adv-x="531" d="M196 1443H334L326 456H205L196 1443ZM305 -10T265 -10T198 17T170 85T197 152T265 180Q306 180 333 153T361 85T333 18Z" />
<glyph unicode="&quot;" glyph-name="quotedbl" horiz-adv-x="703" d="M246 955H123V1443H246V955ZM580 955H457V1443H580V955Z" />
<glyph unicode="#" glyph-name="numbersign" horiz-adv-x="1214" d="M1180 918H930L853 537H1088L1067 426H830L743 0H631L719 426H378L291 0H180L267 426H38L59 537H291L367 918H149L171 1028H389L476 1445H587L502 1028H841L928 1445H1039L953 1028H1201L1180
918ZM478 919L400 535H742L819 919H478Z" />
<glyph unicode="$" glyph-name="dollar" horiz-adv-x="1219" d="M662 -150H558V-9Q355 4 227 114T97 391H227Q235 276 325 200T558 110V689L503 704Q314 752 223 843T132 1075Q132 1236 248 1341T558 1461V1599H662V1462Q848 1449 967 1343T1092 1080H962Q958
1184 874 1258T662 1343V799L720 784Q930 731 1024 640T1118 395Q1118 223 995 115T662 -8V-150ZM986 385Q986 497 911 563T662 668V108Q809 115 897 190T986 385ZM263 1082Q263 981 334 919T558 822V1343Q430 1337 347 1264T263 1082Z" />
<glyph unicode="%" glyph-name="percent" horiz-adv-x="1470" d="M1421 340Q1421 179 1345 83T1140 -14T935 82T858 340Q858 500 934 596T1140 693T1345 597T1421 340ZM1140 81Q1213 81 1255 151T1298 340T1256 528T1140 597T1024 528T981 340Q981 221 1023 151T1140
81ZM613 1105Q613 944 537 848T332 751T127 847T50 1105Q50 1265 126 1361T332 1458T537 1362T613 1105ZM332 846Q405 846 447 916T490 1105T448 1293T332 1362T216 1293T173 1105Q173 986 215 916T332 846ZM268 0H132L1197 1443H1331L268 0Z" />
<glyph unicode="&amp;" glyph-name="ampersand" horiz-adv-x="1372" d="M1184 0L1025 168Q933 78 808 28T550 -23Q342 -23 211 88T79 376Q79 618 358 767Q367 771 385 780T417 797T434 806Q325 918 282 995T238 1153Q238 1286 340 1375T594 1465Q746 1465 846
1377T946 1153Q946 1045 870 957T620 778L1017 353Q1110 511 1110 754V812H1237V753Q1237 462 1106 262L1356 0H1184ZM437 684Q320 617 267 545T214 384Q214 256 310 175T561 93Q667 93 772 137T943 255L509 723Q469 705 437 684ZM545 856Q690 928 754 997T818
1148Q818 1238 755 1297T594 1356Q498 1356 433 1296T368 1146Q368 1083 406 1020T545 856Z" />
<glyph unicode="&apos;" glyph-name="quotesingle" horiz-adv-x="369" d="M246 955H123V1443H246V955Z" />
<glyph unicode="(" glyph-name="parenleft" horiz-adv-x="607" d="M555 -268H435Q382 -200 337 -120T252 68T189 311T166 598Q166 749 188 879T251 1111T337 1290T442 1442H557Q511 1385 469 1308T387 1126T324 884T300 600Q300 124 555 -268Z" />
<glyph unicode=")" glyph-name="parenright" horiz-adv-x="607" d="M52 -268Q307 124 307 600Q307 747 284 884T221 1125T139 1307T51 1442H166Q226 1366 270 1290T356 1112T420 879T442 598Q442 448 419 312T356 68T270 -119T172 -268H52Z" />
<glyph unicode="*" glyph-name="asterisk" horiz-adv-x="973" d="M785 886L527 1048L539 745H434L446 1049L188 886L138 976L406 1118L138 1259L188 1351L446 1186L434 1492H539L527 1186L785 1351L835 1260L568 1118L835 976L785 886Z" />
<glyph unicode="+" glyph-name="plus" horiz-adv-x="1218" d="M671 510V32H547V510H109V634H547V1099H671V634H1109V510H671Z" />
<glyph unicode="," glyph-name="comma" horiz-adv-x="509" d="M225 -242H121L207 192H348L225 -242Z" />
<glyph unicode="-" glyph-name="hyphen" horiz-adv-x="874" d="M765 510H109V634H765V510Z" />
<glyph unicode="." glyph-name="period" horiz-adv-x="509" d="M295 -10T255 -10T188 17T160 85T187 152T255 180Q296 180 323 153T350 85Q350 45 323 18Z" />
<glyph unicode="/" glyph-name="slash" horiz-adv-x="559" d="M113 -330H0L443 1444H559L113 -330Z" />
<glyph unicode="0" glyph-name="zero" horiz-adv-x="1222" d="M611 -23Q366 -23 227 177T88 722Q88 1064 228 1265T611 1466Q855 1466 994 1266T1133 723Q1133 379 994 178T611 -23ZM430 97T611 97T894 265T996 722Q996 1009 894 1177T611 1345Q432 1345 329 1176T226
723Q226 433 328 265Z" />
<glyph unicode="1" glyph-name="one" horiz-adv-x="863" d="M485 0V1298H481Q473 1293 400 1242T236 1127T94 1032V1178Q114 1190 288 1311T483 1445H617V0H485Z" />
<glyph unicode="2" glyph-name="two" horiz-adv-x="1152" d="M115 1039Q116 1223 247 1344T577 1466Q766 1466 896 1352T1026 1072Q1026 954 961 844T715 546L313 126V122H1063V0H122V96L632 635Q787 798 838 884T890 1064Q890 1182 798 1264T573 1346Q434 1346
342 1259T247 1039V1038H115V1039Z" />
<glyph unicode="3" glyph-name="three" horiz-adv-x="1183" d="M399 687V803H567Q708 803 797 881T886 1080Q886 1199 802 1272T573 1346Q439 1346 351 1272T252 1078H120Q133 1252 258 1359T579 1466Q770 1466 897 1362T1024 1097Q1024 962 943 870T723 753V749Q889
739 987 644T1086 395Q1086 275 1020 179T840 30T587 -23Q371 -23 234 88T90 374H222Q230 252 330 175T586 97Q743 97 845 180T947 391Q947 529 847 608T573 687H399Z" />
<glyph unicode="4" glyph-name="four" horiz-adv-x="1214" d="M807 0V326H75V451Q297 824 740 1445H940V447H1155V326H940V0H807ZM213 451V447H807V1325H805Q441 821 213 451Z" />
<glyph unicode="5" glyph-name="five" horiz-adv-x="1186" d="M605 -23Q475 -23 368 28T195 170T121 376H255Q269 255 368 177T607 98Q768 98 871 200T975 462Q975 620 873 724T613 828Q504 828 414 779T274 644H143L225 1443H1025V1321H338L284 788H288Q341 862
433 904T635 947Q841 947 976 810T1112 465Q1112 251 969 114T605 -23Z" />
<glyph unicode="6" glyph-name="six" horiz-adv-x="1206" d="M629 -23Q484 -23 370 48T188 250Q91 419 91 691Q91 1054 236 1260T639 1466Q819 1466 946 1366T1104 1100H966Q939 1210 849 1277T638 1345Q440 1345 332 1169T223 671H226Q270 793 387 869T651 945Q857
945 993 809T1130 468Q1130 256 988 117T629 -23ZM628 99Q780 99 885 205T991 464Q991 619 889 721T629 824Q475 824 369 723T262 474Q262 316 367 208T628 99Z" />
<glyph unicode="7" glyph-name="seven" horiz-adv-x="1105" d="M213 0L882 1317V1321H79V1443H1019V1315L358 0H213Z" />
<glyph unicode="8" glyph-name="eight" horiz-adv-x="1211" d="M605 -23Q379 -23 235 94T91 392Q91 528 180 630T413 763V766Q290 800 218 886T146 1089Q146 1253 276 1359T605 1466Q805 1466 934 1360T1063 1089Q1063 975 991 888T797 766V763Q941 732 1030 630T1119
392Q1119 210 976 94T605 -23ZM439 97T605 97T875 182T980 400Q980 530 876 613T605 696Q440 696 335 613T230 400Q230 268 334 183ZM605 818Q746 818 836 891T927 1078Q927 1195 838 1271T605 1347T372 1271T282 1078Q282 964 372 891T605 818Z" />
<glyph unicode="9" glyph-name="nine" horiz-adv-x="1206" d="M568 -23Q386 -23 259 77T102 343H241Q268 233 357 165T569 97Q762 97 870 266T983 741Q983 745 983 756T982 774H981H980Q939 652 821 575T555 498Q349 498 213 633T76 972Q76 1186 218 1326T577
1466Q723 1466 837 1395T1018 1193Q1115 1024 1115 752Q1115 389 970 183T568 -23ZM577 619Q732 619 838 721T945 969Q945 1126 839 1234T578 1343Q424 1343 319 1237T214 976Q214 824 317 722T577 619Z" />
<glyph unicode=":" glyph-name="colon" horiz-adv-x="509" d="M295 -10T255 -10T188 17T160 85T187 152T255 180Q296 180 323 153T350 85Q350 45 323 18ZM295 741T255 741T188 768T160 836T187 903T255 931Q296 931 323 904T350 836T323 769Z" />
<glyph unicode=";" glyph-name="semicolon" horiz-adv-x="509" d="M295 741T255 741T188 768T160 836T187 903T255 931Q296 931 323 904T350 836T323 769ZM199 -242H96L180 192H322L199 -242Z" />
<glyph unicode="&lt;" glyph-name="less" horiz-adv-x="1219" d="M1035 1008L318 565V557L1035 129V-16L184 502V611L1035 1154V1008Z" />
<glyph unicode="=" glyph-name="equal" horiz-adv-x="1219" d="M1096 323H123V441H1096V323ZM1096 703H123V821H1096V703Z" />
<glyph unicode="&gt;" glyph-name="greater" horiz-adv-x="1219" d="M184 1009V1155L1035 612V503L184 -16V130L901 558V566L184 1009Z" />
<glyph unicode="?" glyph-name="question" horiz-adv-x="972" d="M58 1079Q67 1244 178 1350T477 1456Q656 1456 771 1354T887 1098Q887 990 835 908T676 757Q578 694 543 642T508 505V430H375V524Q374 622 420 692T572 831Q667 894 706 953T746 1092Q746 1199
669 1268T472 1337T275 1267T188 1079H58ZM483 -10T443 -10T376 17T348 85T375 152T443 180Q484 180 511 153T538 85Q538 45 511 18Z" />
<glyph unicode="@" glyph-name="at" horiz-adv-x="1770" d="M878 906Q769 906 704 821T639 594Q639 453 703 369T877 284Q988 284 1054 370T1120 599Q1120 740 1055 823T878 906ZM910 1434Q1141 1434 1323 1341T1608 1078T1710 690Q1710 450 1616 309T1358 168Q1268
168 1205 218T1130 352H1123Q1089 266 1022 221T861 175Q706 175 611 291T515 597Q515 781 611 897T861 1013Q948 1013 1017 969T1115 852H1122V993H1238V421Q1238 351 1274 311T1377 270Q1479 270 1540 382T1601 692Q1601 978 1406 1156T901 1335Q700 1335 539
1241T288 979T197 600Q197 375 291 208T548 -46T921 -133Q1142 -133 1253 -89V-188Q1126 -232 920 -232Q677 -232 490 -134T195 156T87 604Q87 786 148 940T317 1203T578 1373T910 1434Z" />
<glyph unicode="A" glyph-name="A" horiz-adv-x="1262" d="M1094 0L934 442H328L168 0H23L563 1443H699L1238 0H1094ZM628 1274L369 560H893L634 1274H628Z" />
<glyph unicode="B" glyph-name="B" horiz-adv-x="1217" d="M669 0H135V1443H666Q852 1443 967 1345T1083 1087Q1083 967 1009 875T819 762V755Q971 737 1064 641T1157 396Q1157 211 1027 106T669 0ZM271 1322V802H597Q761 802 853 873T945 1072Q945 1190 863 1256T637
1322H271ZM271 121H651Q827 121 922 194T1017 403T918 611T632 684H271V121Z" />
<glyph unicode="C" glyph-name="C" horiz-adv-x="1371" d="M720 -23Q425 -23 251 179T77 725Q77 1064 251 1265T720 1466Q871 1466 997 1405T1205 1234T1305 985H1168Q1138 1141 1013 1240T720 1339Q490 1339 354 1173T217 725Q217 440 353 272T721 104Q894 104
1015 191T1168 427H1305Q1267 216 1111 97T720 -23Z" />
<glyph unicode="D" glyph-name="D" horiz-adv-x="1370" d="M135 1443H610Q934 1443 1114 1254T1294 722Q1294 379 1115 190T610 0H135V1443ZM272 1319V124H602Q868 124 1011 279T1155 721Q1155 1009 1012 1164T602 1319H272Z" />
<glyph unicode="E" glyph-name="E" horiz-adv-x="1104" d="M1006 124V0H135V1443H1006V1319H271V800H969V678H271V124H1006Z" />
<glyph unicode="F" glyph-name="F" horiz-adv-x="1061" d="M271 0H135V1443H991V1319H271V777H933V655H271V0Z" />
<glyph unicode="G" glyph-name="G" horiz-adv-x="1409" d="M1324 586Q1324 300 1165 139T725 -23Q432 -23 255 183T77 730Q77 1065 253 1265T725 1466Q952 1466 1113 1341T1315 1009H1173Q1129 1163 1010 1251T725 1339Q490 1339 354 1176T217 730Q217 444 355
274T725 104Q934 104 1061 227T1188 554V605H740V725H1324V586Z" />
<glyph unicode="H" glyph-name="H" horiz-adv-x="1387" d="M1252 0H1115V677H271V0H135V1443H271V801H1115V1443H1252V0Z" />
<glyph unicode="I" glyph-name="I" horiz-adv-x="406" d="M271 0H135V1443H271V0Z" />
<glyph unicode="J" glyph-name="J" horiz-adv-x="987" d="M42 331H177Q182 227 254 162T439 97Q571 97 643 175T716 397V1443H852V395Q852 196 743 83T439 -30Q266 -30 155 71T42 331Z" />
<glyph unicode="K" glyph-name="K" horiz-adv-x="1209" d="M271 0H135V1443H271V695H279L965 1443H1138L545 805L1197 0H1022L449 708L271 515V0Z" />
<glyph unicode="L" glyph-name="L" horiz-adv-x="1052" d="M994 124V0H135V1443H271V124H994Z" />
<glyph unicode="M" glyph-name="M" horiz-adv-x="1660" d="M1525 1443V0H1397V1184H1391L889 7H770L269 1184H263V0H135V1443H292L827 180H833L1367 1443H1525Z" />
<glyph unicode="N" glyph-name="N" horiz-adv-x="1393" d="M270 0H135V1443H270L1116 238H1123V1443H1258V0H1126L277 1206H270V0Z" />
<glyph unicode="O" glyph-name="O" horiz-adv-x="1465" d="M732 1466Q1034 1466 1211 1265T1388 721T1211 178T732 -23T254 177T77 721T254 1265T732 1466ZM969 1339T732 1339T356 1172T217 721T356 271T732 104T1108 271T1248 721Q1248 1005 1109 1172Z" />
<glyph unicode="P" glyph-name="P" horiz-adv-x="1171" d="M135 1443H647Q853 1443 981 1319T1110 994T981 669T646 544H271V0H135V1443ZM271 1321V666H615Q781 666 875 753T970 994T876 1234T615 1321H271Z" />
<glyph unicode="Q" glyph-name="Q" horiz-adv-x="1465" d="M1300 -169H1146L1001 29Q879 -23 732 -23Q430 -23 254 177T77 721T254 1265T732 1466Q1034 1466 1211 1265T1388 721Q1388 508 1317 346T1112 89L1300 -169ZM732 104Q834 104 922 138L735 395H889L1032
199Q1136 276 1191 410T1247 721Q1247 1005 1108 1172T732 1339T356 1172T217 721Q217 438 356 271T732 104Z" />
<glyph unicode="R" glyph-name="R" horiz-adv-x="1199" d="M271 1321V712H640Q797 712 884 792T972 1017Q972 1160 883 1240T635 1321H271ZM271 591V0H135V1443H651Q862 1443 987 1329T1113 1021Q1113 868 1031 759T804 613L1153 0H994L662 591H640H271Z" />
<glyph unicode="S" glyph-name="S" horiz-adv-x="1182" d="M65 392H202Q213 262 325 182T606 101Q768 101 872 180T977 381Q977 482 904 545T670 650L491 696Q290 747 198 836T105 1067Q105 1241 245 1353T599 1466Q809 1466 948 1355T1094 1071H957Q947 1193
848 1267T595 1342Q444 1342 346 1267T247 1072Q247 979 318 921T549 821L705 781Q923 726 1020 636T1117 396Q1117 206 975 92T594 -23Q368 -23 222 91T65 392Z" />
<glyph unicode="T" glyph-name="T" horiz-adv-x="1179" d="M658 0H521V1319H38V1443H1141V1319H658V0Z" />
<glyph unicode="U" glyph-name="U" horiz-adv-x="1386" d="M271 1443V512Q271 328 384 216T693 104T1002 216T1115 512V1443H1252V504Q1252 268 1101 123T693 -23T286 122T135 504V1443H271Z" />
<glyph unicode="V" glyph-name="V" horiz-adv-x="1262" d="M699 0H563L23 1443H168L628 170H634L1095 1443H1239L699 0Z" />
<glyph unicode="W" glyph-name="W" horiz-adv-x="1854" d="M923 1209L568 0H441L44 1443H186L504 210H510L859 1443H995L1343 210H1350L1667 1443H1810L1412 0H1286L931 1209H923Z" />
<glyph unicode="X" glyph-name="X" horiz-adv-x="1263" d="M44 0L546 722V727L48 1443H213L634 830H639L1063 1443H1220L713 721V717L1212 0H1048L629 610H624L199 0H44Z" />
<glyph unicode="Y" glyph-name="Y" horiz-adv-x="1219" d="M678 0H541V624L24 1443H180L607 758H612L1039 1443H1195L678 624V0Z" />
<glyph unicode="Z" glyph-name="Z" horiz-adv-x="1224" d="M87 0V99L953 1313V1319H115V1443H1126V1343L262 130V124H1138V0H87Z" />
<glyph unicode="[" glyph-name="bracketleft" horiz-adv-x="628" d="M186 1444H603V1338H315V-134H616V-238H186V1444Z" />
<glyph unicode="\" glyph-name="backslash" horiz-adv-x="559" d="M446 -330L0 1444H116L559 -330H446Z" />
<glyph unicode="]" glyph-name="bracketright" horiz-adv-x="628" d="M442 1444V-238H12V-134H314V1338H26V1444H442Z" />
<glyph unicode="^" glyph-name="asciicircum" horiz-adv-x="847" d="M418 1304L187 810H57L353 1427H494L790 810H660L429 1304H418Z" />
<glyph unicode="_" glyph-name="underscore" horiz-adv-x="819" d="M877 -222H-58V-122H877V-222Z" />
<glyph unicode="`" glyph-name="grave" horiz-adv-x="899" d="M640 1251H523L267 1552H420L640 1251Z" />
<glyph unicode="a" glyph-name="a" horiz-adv-x="1048" d="M463 104Q608 104 705 190T803 405V524L488 502Q352 493 282 442T211 299Q211 212 281 158T463 104ZM437 -12Q276 -12 176 74T76 300Q76 438 177 516T472 609L803 631V723Q803 841 732 906T530 971Q417
971 343 917T251 766H124Q132 908 246 998T531 1089Q716 1089 825 993T935 734V0H809V206H806Q762 108 662 48T437 -12Z" />
<glyph unicode="b" glyph-name="b" horiz-adv-x="1154" d="M632 -12Q503 -12 405 51T258 228H255V0H129V1506H261V856H264Q311 965 409 1027T634 1089Q837 1089 963 937T1089 539Q1089 292 963 140T632 -12ZM765 971T610 971T358 850T260 538T357 227T609 107Q764
107 859 225T954 539Q954 733 860 852Z" />
<glyph unicode="c" glyph-name="c" horiz-adv-x="1046" d="M992 738H861Q841 841 758 906T550 971Q392 971 296 853T200 539Q200 340 296 224T551 107Q675 107 757 166T862 332H993Q970 178 849 83T551 -12Q330 -12 198 136T65 539Q65 789 197 939T549 1089Q731
1089 851 988T992 738Z" />
<glyph unicode="d" glyph-name="d" horiz-adv-x="1157" d="M526 -12Q323 -12 194 140T65 539Q65 784 193 936T523 1089Q651 1089 750 1026T893 856H896V1506H1029V0H903V229H900Q853 118 754 53T526 -12ZM702 971T547 971T296 852T200 539T296 226T547 107T799
227T897 539Q897 730 800 850Z" />
<glyph unicode="e" glyph-name="e" horiz-adv-x="1075" d="M543 972Q398 972 305 874T202 614H872Q870 775 780 873T543 972ZM865 305H996Q972 166 850 77T553 -12Q329 -12 197 135T65 536Q65 787 196 938T545 1089Q757 1089 883 947T1010 564V506H202V499Q202
317 298 211T556 105Q675 105 758 160T865 305Z" />
<glyph unicode="f" glyph-name="f" horiz-adv-x="589" d="M173 0V966H23V1077H173V1200Q173 1341 238 1406T439 1472Q488 1472 528 1463V1352Q493 1360 450 1360Q377 1360 342 1322T306 1198V1077H525V966H306V0H173Z" />
<glyph unicode="g" glyph-name="g" horiz-adv-x="1144" d="M543 114Q699 114 796 232T893 541Q893 732 796 851T543 971Q389 971 295 853T200 541Q200 348 294 231T543 114ZM552 -375Q374 -375 256 -299T118 -99H256Q276 -172 358 -215T560 -259Q711 -259 802
-187T893 10V229H890Q844 123 746 59T520 -5Q317 -5 191 146T65 541Q65 788 191 938T523 1089Q650 1089 749 1025T897 854H899V1077H1025V20Q1025 -164 897 -269T552 -375Z" />
<glyph unicode="h" glyph-name="h" horiz-adv-x="1118" d="M129 0V1506H261V876H264Q310 978 401 1033T620 1089Q796 1089 900 980T1005 690V0H873V669Q873 811 797 891T583 971Q437 971 349 877T261 628V0H129Z" />
<glyph unicode="i" glyph-name="i" horiz-adv-x="390" d="M129 0V1077H261V0H129ZM232 1290T195 1290T132 1316T105 1379Q105 1416 131 1442T195 1469T258 1443T284 1379Q284 1343 258 1317Z" />
<glyph unicode="j" glyph-name="j" horiz-adv-x="390" d="M261 1077V-68Q261 -224 187 -295T-47 -367H-78V-254H-51Q46 -254 87 -212T129 -72V1077H261ZM232 1290T195 1290T132 1316T105 1379Q105 1416 131 1442T195 1469T258 1443T284 1379Q284 1343 258 1317Z" />
<glyph unicode="k" glyph-name="k" horiz-adv-x="988" d="M262 565L799 1077H963L477 612L973 0H817L383 531L261 420V0H129V1506H261V565H262Z" />
<glyph unicode="l" glyph-name="l" horiz-adv-x="390" d="M129 0V1506H261V0H129Z" />
<glyph unicode="m" glyph-name="m" horiz-adv-x="1677" d="M119 0V1077H243V876H247Q282 973 365 1031T561 1089Q676 1089 758 1028T872 863H875Q914 965 1005 1027T1216 1089Q1374 1089 1469 992T1564 731V0H1431V701Q1431 827 1365 899T1180 971Q1060 971 984
888T907 673V0H775V714Q775 829 706 900T526 971Q406 971 329 883T251 657V0H119Z" />
<glyph unicode="n" glyph-name="n" horiz-adv-x="1097" d="M119 0V1077H243V876H247Q293 978 383 1033T602 1089Q779 1089 881 983T984 693V0H852V672Q852 815 777 893T565 971Q422 971 337 878T251 633V0H119Z" />
<glyph unicode="o" glyph-name="o" horiz-adv-x="1109" d="M554 -12Q332 -12 199 137T65 539Q65 790 198 939T554 1089Q777 1089 910 940T1044 539T911 138T554 -12ZM554 107Q719 107 814 222T909 539T814 855T554 971Q390 971 295 856T200 539T295 223T554 107Z" />
<glyph unicode="p" glyph-name="p" horiz-adv-x="1144" d="M620 1089Q824 1089 951 937T1079 539T953 141T622 -12Q495 -12 398 51T254 222H251V-357H119V1077H244V854H247Q290 958 392 1023T620 1089ZM597 107Q753 107 848 225T944 538T849 851T597 971Q443 971
347 851T250 539Q250 347 346 227T597 107Z" />
<glyph unicode="q" glyph-name="q" horiz-adv-x="1147" d="M525 1089Q655 1089 754 1026T900 854H903V1077H1029V-357H896V222H893Q847 115 748 52T522 -12Q319 -12 192 140T65 539T192 937T525 1089ZM390 107T545 107T798 227T896 539Q896 730 798 850T545 971T295
852T200 538T295 225Z" />
<glyph unicode="r" glyph-name="r" horiz-adv-x="634" d="M119 0V1077H243V886H247Q275 982 347 1035T520 1089Q567 1089 604 1078V947Q570 962 502 962Q388 962 320 881T251 668V0H119Z" />
<glyph unicode="s" glyph-name="s" horiz-adv-x="958" d="M97 787Q97 920 206 1004T484 1089Q647 1089 755 1001T871 774H744Q734 866 664 921T480 977Q371 977 300 926T228 794Q228 729 276 688T429 621L594 581Q756 540 824 476T892 296Q892 160 776 74T477
-12Q305 -12 191 76T65 303H199Q211 210 287 155T485 99Q607 99 682 150T758 287Q758 356 712 396T557 464L375 510Q235 545 166 613T97 787Z" />
<glyph unicode="t" glyph-name="t" horiz-adv-x="598" d="M177 1335H309V1077H522V966H309V270Q309 186 343 148T453 110Q495 110 527 114V1Q502 -6 427 -6Q293 -6 235 57T177 265V966H23V1077H177V1335Z" />
<glyph unicode="u" glyph-name="u" horiz-adv-x="1097" d="M979 1077V0H854V202H851Q806 102 713 45T493 -12Q317 -12 215 94T113 383V1077H245V405Q245 261 319 184T530 107Q672 107 759 199T846 444V1077H979Z" />
<glyph unicode="v" glyph-name="v" horiz-adv-x="977" d="M960 1077L559 0H419L17 1077H156L487 141H490L822 1077H960Z" />
<glyph unicode="w" glyph-name="w" horiz-adv-x="1477" d="M1456 1077L1149 0H1010L740 897H737L467 0H328L21 1077H154L398 150H401L671 1077H805L1076 150H1079L1323 1077H1456Z" />
<glyph unicode="x" glyph-name="x" horiz-adv-x="950" d="M476 444H472L174 0H24L404 542L28 1077H178L477 643H480L776 1077H926L549 547L923 0H773L476 444Z" />
<glyph unicode="y" glyph-name="y" horiz-adv-x="980" d="M197 -381Q168 -381 131 -374V-260Q159 -267 195 -267Q269 -267 313 -226T396 -80L422 -7L17 1077H159L489 134H492L823 1077H963L540 -59Q470 -248 399 -314T197 -381Z" />
<glyph unicode="z" glyph-name="z" horiz-adv-x="963" d="M83 0V100L728 964V966H83V1077H879V976L235 114V111H881V0H83Z" />
<glyph unicode="{" glyph-name="braceleft" horiz-adv-x="717" d="M256 607Q431 591 431 374V14Q431 -105 489 -160T672 -216H725V-325H669Q481 -325 393 -243T305 15V324Q305 445 266 492T128 540V698Q227 698 266 746T305 916V1184Q305 1356 392 1435T669 1515H725V1406H672Q545
1406 488 1352T431 1175V862Q431 647 256 631V607Z" />
<glyph unicode="|" glyph-name="bar" horiz-adv-x="407" d="M260 -328H147V1443H260V-328Z" />
<glyph unicode="}" glyph-name="braceright" horiz-adv-x="717" d="M461 607V631Q286 647 286 862V1175Q286 1297 229 1351T45 1406H-9V1515H47Q237 1515 324 1436T412 1184V916Q412 794 451 746T588 698V540Q489 540 451 493T412 324V15Q412 -161 324 -243T47
-325H-9V-216H45Q170 -216 228 -161T286 14V374Q286 591 461 607Z" />
<glyph unicode="~" glyph-name="asciitilde" horiz-adv-x="1219" d="M570 650Q510 709 473 732T397 755Q330 755 291 704T246 559H123Q123 707 197 794T400 881Q460 881 515 853T641 756Q699 699 739 676T817 652Q885 652 927 705T973 852H1096Q1096 705 1019
616T815 526Q751 526 696 554T570 650Z" />
</font>
</defs>
</svg>
